<?xml version="1.0" encoding="utf-8"?>
<svg version="1.1" id="Camada_1" xmlns="http://www.w3.org/2000/svg" xmlns:xlink="http://www.w3.org/1999/xlink" x="0px" y="0px"
	 viewBox="0 0 512 512" style="enable-background:new 0 0 512 512;" xml:space="preserve">
<style type="text/css">
	.st0{fill:#FF4500;}
</style>
<path class="st0" d="M268.6,250.7c3,0,5.4,2.4,5.4,5.5c0,3-2.4,5.4-5.4,5.4c-3,0-5.5-2.4-5.5-5.4
	C263.1,253.1,265.6,250.7,268.6,250.7z M491,255.5c0-31.7-5.8-61.7-17.4-90c-11.6-28.3-27.7-53-48.2-74c-20.6-21-45.2-37.6-74-49.8
	c-28.7-12.2-60.5-18.3-95.2-18.3c-34.7,0-66.5,6.2-95.2,18.7c-28.7,12.4-53.6,29.3-74.6,50.5c-21,21.2-37.3,46-48.9,74.3
	C26,195,20.2,225,20.2,256.8c0,31.7,5.8,61.7,17.4,90.1c11.6,28.3,27.7,53,48.2,74c20.6,21,45.2,37.6,74,49.9
	c28.7,12.2,60.5,18.3,95.2,18.3c34.7,0,66.5-6.2,95.2-18.7c28.7-12.4,53.6-29.3,74.6-50.5c21-21.2,37.3-46,48.9-74.3
	C485.2,317.2,491,287.2,491,255.5z M254.9,96h153.7l-77,20.6l-78.8,21.1v54.8v126.3v54.8l81.1,21.7c-5.2,3.1-10.6,5.9-16.2,8.4
	c-18.7,8.4-39.1,12.5-61.4,12.5c-22.3,0-42.9-4.3-61.7-12.9c-18.9-8.6-35.1-20.2-48.6-34.7c-13.5-14.6-24-31.6-31.5-51.1
	c-7.5-19.5-11.3-40.2-11.3-62.1c0-21.9,3.8-42.6,11.3-62.1c7.5-19.5,17.9-36.4,31.2-50.8c13.3-14.4,29.3-25.7,47.9-34.1
	C212.2,100.2,232.7,96,254.9,96z"/>
</svg>
